<!DOCTYPE svg PUBLIC "-//W3C//DTD SVG 1.1//EN" "http://www.w3.org/Graphics/SVG/1.1/DTD/svg11.dtd">
<!-- Uploaded to: SVG Repo, www.svgrepo.com, Transformed by: SVG Repo Mixer Tools -->
<svg fill="#ffffff" width="800px" height="800px" viewBox="0 0 24 24" id="translate" data-name="Line Color" xmlns="http://www.w3.org/2000/svg" class="icon line-color" stroke="#ffffff">
<g id="SVGRepo_bgCarrier" stroke-width="0"/>
<g id="SVGRepo_tracerCarrier" stroke-linecap="round" stroke-linejoin="round"/>
<g id="SVGRepo_iconCarrier">
<path id="secondary" d="M10,11a8.14,8.14,0,0,0,4,3" style="fill: none; stroke: #b6cbe5; stroke-linecap: round; stroke-linejoin: round; stroke-width: 2;"/>
<path id="secondary-2" data-name="secondary" d="M10,14c4-1,4-6,4-6" style="fill: none; stroke: #b6cbe5; stroke-linecap: round; stroke-linejoin: round; stroke-width: 2;"/>
<path id="secondary-3" data-name="secondary" d="M8,8h8M12,7V8" style="fill: none; stroke: #b6cbe5; stroke-linecap: round; stroke-linejoin: round; stroke-width: 2;"/>
<path id="primary" d="M21,4V16a1,1,0,0,1-1,1H16l-4,4L8,17H4a1,1,0,0,1-1-1V4A1,1,0,0,1,4,3H20A1,1,0,0,1,21,4Z" style="fill: none; stroke: #254d65; stroke-linecap: round; stroke-linejoin: round; stroke-width: 2;"/>
</g>
</svg>